<svg width="20" height="20" viewBox="0 0 20 20" fill="none" xmlns="http://www.w3.org/2000/svg">
<path d="M4.16602 17.3333V17.8333H5.16602V17.3333H4.16602ZM14.8327 17.3333V17.8333H15.8327V17.3333H14.8327ZM5.16602 17.3333V16.6664H4.16602V17.3333H5.16602ZM8.66602 13.1666H11.3327V12.1666H8.66602V13.1666ZM14.8327 16.6664V17.3333H15.8327V16.6664H14.8327ZM11.3327 13.1666C13.2657 13.1666 14.8327 14.7335 14.8327 16.6664H15.8327C15.8327 14.1811 13.8179 12.1666 11.3327 12.1666V13.1666ZM5.16602 16.6664C5.16602 14.7335 6.73299 13.1666 8.66602 13.1666V12.1666C6.18077 12.1666 4.16602 14.1811 4.16602 16.6664H5.16602ZM9.99935 4.16663C8.25045 4.16663 6.83268 5.58439 6.83268 7.33329H7.83268C7.83268 6.13668 8.80273 5.16663 9.99935 5.16663V4.16663ZM13.166 7.33329C13.166 5.58439 11.7483 4.16663 9.99935 4.16663V5.16663C11.196 5.16663 12.166 6.13668 12.166 7.33329H13.166ZM9.99935 10.5C11.7483 10.5 13.166 9.08219 13.166 7.33329H12.166C12.166 8.52991 11.196 9.49996 9.99935 9.49996V10.5ZM9.99935 9.49996C8.80273 9.49996 7.83268 8.52991 7.83268 7.33329H6.83268C6.83268 9.08219 8.25045 10.5 9.99935 10.5V9.49996ZM9.99935 18.8333C5.12083 18.8333 1.16602 14.8785 1.16602 9.99996H0.166016C0.166016 15.4308 4.56855 19.8333 9.99935 19.8333V18.8333ZM18.8327 9.99996C18.8327 14.8785 14.8779 18.8333 9.99935 18.8333V19.8333C15.4301 19.8333 19.8327 15.4308 19.8327 9.99996H18.8327ZM9.99935 1.16663C14.8779 1.16663 18.8327 5.12144 18.8327 9.99996H19.8327C19.8327 4.56916 15.4301 0.166626 9.99935 0.166626V1.16663ZM9.99935 0.166626C4.56855 0.166626 0.166016 4.56916 0.166016 9.99996H1.16602C1.16602 5.12144 5.12083 1.16663 9.99935 1.16663V0.166626Z" fill="#838383"/>
</svg>
