<svg width="17" height="15" viewBox="0 0 17 15" fill="none" xmlns="http://www.w3.org/2000/svg">
<path d="M6.24672 0V4.30769M13.139 0V4.30769M4.52365 2.15385H14.8621C15.3379 2.15385 15.7236 2.53957 15.7236 3.01538V11.6308C15.7236 12.1066 15.3379 12.4923 14.8621 12.4923H4.52365C4.04783 12.4923 3.66211 12.1066 3.66211 11.6308V3.01538C3.66211 2.53957 4.04783 2.15385 4.52365 2.15385Z" stroke="#989EA1" strokeOpacity="0.8"/>
<rect x="1.07617" y="7.53857" width="7.53846" height="6.46154" fill="white"/>
<path d="M4.4926 13.1079L4.13905 13.4615L4.84615 14.1686L5.19971 13.8151L4.4926 13.1079ZM7 11.3077L7.35355 11.6612L7.70711 11.3077L7.35355 10.9541L7 11.3077ZM5.19971 8.80026L4.84615 8.4467L4.13905 9.15381L4.4926 9.50736L5.19971 8.80026ZM5.19971 13.8151L7.35355 11.6612L6.64645 10.9541L4.4926 13.1079L5.19971 13.8151ZM7.35355 10.9541L5.19971 8.80026L4.4926 9.50736L6.64645 11.6612L7.35355 10.9541ZM7 10.8077H0V11.8077H7V10.8077Z" fill="#989EA1" fill-opacity="0.8"/>
</svg>
