<svg width="16" height="15" viewBox="0 0 16 15" fill="none" xmlns="http://www.w3.org/2000/svg">
<path d="M16 3.13333L6.93333 3.13333M6.93333 3.13333C6.93333 1.95513 5.97821 1 4.8 1C3.62179 1 2.66667 1.95513 2.66667 3.13333M6.93333 3.13333C6.93333 4.31154 5.97821 5.26667 4.8 5.26667C3.62179 5.26667 2.66667 4.31154 2.66667 3.13333M2.66667 3.13333H0M16 11.6667L13.3333 11.6667M13.3333 11.6667C13.3333 10.4885 12.3782 9.53333 11.2 9.53333C10.0218 9.53333 9.06667 10.4885 9.06667 11.6667M13.3333 11.6667C13.3333 12.8449 12.3782 13.8 11.2 13.8C10.0218 13.8 9.06667 12.8449 9.06667 11.6667M9.06667 11.6667H1.35624e-07" stroke="#989EA1" strokeOpacity="0.5"/>
</svg>
