<svg width="100" height="16" viewBox="0 0 100 16" fill="none" xmlns="http://www.w3.org/2000/svg">
<path d="M13.3884 4.30901C12.8582 3.05611 11.9807 1.98369 10.8611 1.22018C9.71275 0.435444 8.35694 0.016145 6.96928 0.0166031C6.03882 0.0159759 5.11779 0.204477 4.26135 0.57082C3.01651 1.1044 1.95085 1.98829 1.19212 3.11652C0.414035 4.27353 -0.0012637 5.63921 2.88853e-06 7.03668V15.3333H1.65062V7.03668C1.65001 6.32256 1.79255 5.61567 2.0697 4.95837C2.47553 4.00069 3.14664 3.18102 4.00275 2.59741C4.87767 1.99832 5.91136 1.67839 6.96928 1.67925C7.67824 1.67864 8.38002 1.82222 9.03256 2.10138C9.98345 2.50995 10.7972 3.186 11.3764 4.04853C11.9712 4.92982 12.2888 5.97105 12.2879 7.03668V15.3333H13.9386V7.03668C13.9392 6.09944 13.752 5.1717 13.3884 4.30901Z" fill="black"/>
<path d="M62.4944 4.30904C61.9642 3.05614 61.0868 1.98372 59.9671 1.2202C58.8188 0.435467 57.463 0.0161684 56.0753 0.0166265C55.1449 0.0159992 54.2238 0.2045 53.3674 0.570843C51.8655 1.21256 50.6331 2.36216 49.8828 3.82133C49.3431 2.77518 48.553 1.88115 47.5838 1.2202C46.4353 0.436292 45.0794 0.0179511 43.692 0.0193976C42.398 0.0184842 41.1297 0.383315 40.0313 1.07241C39.436 1.44495 38.8995 1.90512 38.4394 2.43763C38.399 2.48566 38.3587 2.53462 38.3202 2.58357C37.7954 3.25465 37.3919 4.01348 37.1281 4.82538C36.8784 5.5978 36.7022 6.39236 36.6017 7.19835C36.5338 7.69992 36.455 8.28 36.3266 8.88687C36.2303 9.35325 36.1026 9.81247 35.9442 10.2613C35.7127 10.9416 35.3603 11.5739 34.9043 12.1272C34.671 12.403 34.4042 12.6482 34.1102 12.8569C33.7868 13.0847 33.435 13.2685 33.0639 13.4037V13.4102C32.5529 13.572 32.0204 13.6542 31.4848 13.6541C30.7305 13.6609 29.9825 13.5168 29.284 13.2301C28.346 12.839 27.5506 12.1662 27.0061 11.3033C26.4459 10.4027 26.1538 9.35929 26.1643 8.29663V0H24.5137V8.29663C24.5137 10.1994 25.2033 11.9609 26.4339 13.2449C27.0614 13.8988 27.8154 14.4159 28.6494 14.7643C29.5481 15.1364 30.5113 15.3248 31.4829 15.3186C32.383 15.3191 33.2744 15.1428 34.1074 14.7994L34.0955 14.7699C34.787 14.4534 35.4117 14.0062 35.936 13.4527C36.3712 12.9944 36.7406 12.477 37.0336 11.9157C37.4223 11.1467 37.7119 10.331 37.8956 9.48819C38.0744 8.70952 38.1707 7.98626 38.2477 7.42281C38.377 6.46309 38.5824 5.53755 38.9447 4.73486C39.1213 4.3375 39.3465 3.9639 39.615 3.62273C39.8953 3.2677 40.2263 2.95643 40.5971 2.69904L40.5916 2.69072C40.6934 2.6159 40.7979 2.54478 40.9052 2.47827C41.7422 1.95296 42.7087 1.67485 43.6948 1.67558C44.4043 1.67591 45.1064 1.82075 45.759 2.10141C46.71 2.51018 47.524 3.18617 48.1038 4.04855C48.6978 4.93013 49.0151 5.97123 49.0144 7.03671V15.3333H50.7567V7.03671C50.7561 6.32258 50.8986 5.61569 51.1757 4.95839C51.5816 4.00071 52.2527 3.18105 53.1088 2.59743C53.9837 1.99834 55.0174 1.67841 56.0753 1.67928C56.7843 1.67866 57.4861 1.82224 58.1386 2.10141C59.0895 2.50997 59.9033 3.18602 60.4825 4.04855C61.0772 4.92985 61.3948 5.97107 61.394 7.03671V15.3333H63.0446V7.03671C63.0452 6.09946 62.8581 5.17172 62.4944 4.30904Z" fill="black"/>
<path d="M99.3856 4.28964C98.8554 3.03674 97.978 1.96432 96.8583 1.20081C95.7097 0.417053 94.3539 -0.00127291 92.9665 2.90958e-06C92.0361 -0.000624356 91.115 0.187876 90.2586 0.55422C89.0148 1.08825 87.9501 1.9721 87.1921 3.09992C86.414 4.25693 85.9987 5.6226 86 7.02008V15.3139H87.6506V7.01731C87.65 6.30319 87.7925 5.59629 88.0697 4.939C88.4755 3.98131 89.1466 3.16165 90.0027 2.57803C90.8777 1.97895 91.9114 1.65902 92.9693 1.65988C93.6782 1.65927 94.38 1.80285 95.0325 2.08201C95.9834 2.49058 96.7972 3.16662 97.3764 4.02916C97.9712 4.91045 98.2888 5.95167 98.2879 7.01731V15.3139H99.9386V7.01731C99.9383 6.07987 99.7502 5.15213 99.3856 4.28964Z" fill="black"/>
<path d="M75.4241 0.8479H73.7734V15.3333H75.4241V0.8479Z" fill="black"/>
</svg>
