<svg width="44" height="44" viewBox="0 0 44 44" fill="none" xmlns="http://www.w3.org/2000/svg">
<path fill-rule="evenodd" clip-rule="evenodd" d="M16.9691 1L16.7168 2.28101L15.7518 6.96836C14.2088 7.55758 12.8096 8.3931 11.5453 9.38392L6.82853 7.80679L5.56136 7.41398L4.90429 8.54549L1.65706 13.9744L1 15.1061L1.96214 15.9474L5.61122 19.0517C5.47922 19.8637 5.30909 20.6669 5.30909 21.5199C5.30909 22.3729 5.47922 23.1763 5.61122 23.9883L1.96214 27.0926L1 27.9339L1.65706 29.0654L4.90429 34.4945L5.56136 35.6289L6.82853 35.2332L11.5453 33.6561C12.8096 34.6469 14.2088 35.4822 15.7518 36.0715L16.7168 40.7588L16.9691 42.04H26.0947L26.3499 40.7588L27.312 36.0715C28.8549 35.4822 30.2542 34.6469 31.5184 33.6561L36.2352 35.2332L37.5024 35.6289L38.1624 34.4945L41.4067 29.0654L42.0667 27.9339L41.1016 27.0926L37.4525 23.9883C37.5875 23.1763 37.7547 22.3729 37.7547 21.5199C37.7547 20.6669 37.5875 19.8637 37.4525 19.0517L41.1016 15.9474L42.0667 15.1061L41.4067 13.9744L38.1624 8.54549L37.5024 7.41398L36.2352 7.80679L31.5184 9.38392C30.2542 8.3931 28.8549 7.55758 27.312 6.96836L26.3499 2.28101L26.0947 1H16.9691Z" stroke="#989EA1" strokeWidth="2" stroke-linecap="square" stroke-linejoin="round"/>
<path fill-rule="evenodd" clip-rule="evenodd" d="M27.3989 21.5199C27.3989 24.7562 24.7707 27.3828 21.5323 27.3828C18.2939 27.3828 15.6656 24.7562 15.6656 21.5199C15.6656 18.2836 18.2939 15.6572 21.5323 15.6572C24.7707 15.6572 27.3989 18.2836 27.3989 21.5199Z" stroke="#989EA1" strokeWidth="2" stroke-linecap="square" stroke-linejoin="round"/>
</svg>
