<svg width="44" height="44" viewBox="0 0 44 44" fill="none" xmlns="http://www.w3.org/2000/svg">
<path d="M1 42.5333H0V43.5333H1V42.5333ZM5.86667 33.7333V34.7333H7.86667V33.7333H5.86667ZM43.0667 7.33333V6.33333H41.0667V7.33333H43.0667ZM0 0V42.5333H2V0H0ZM1 43.5333H43.5333V41.5333H1V43.5333ZM7.86667 33.7333C7.86667 29.4245 8.58756 25.1735 9.98048 22.0395C11.3885 18.8715 13.3296 17.1333 15.6667 17.1333V15.1333C12.1371 15.1333 9.6782 17.7952 8.15286 21.2272C6.61244 24.6931 5.86667 29.2422 5.86667 33.7333H7.86667ZM15.6667 17.1333C16.7749 17.1333 17.8255 17.6819 18.9301 18.7015C20.0416 19.7275 21.0857 21.1143 22.2 22.6C23.2857 24.0476 24.4416 25.5942 25.7134 26.7681C26.9922 27.9485 28.5082 28.8667 30.3333 28.8667V26.8667C29.2251 26.8667 28.1745 26.3181 27.0699 25.2985C25.9584 24.2725 24.9143 22.8857 23.8 21.4C22.7143 19.9524 21.5584 18.4058 20.2866 17.2319C19.0078 16.0515 17.4918 15.1333 15.6667 15.1333V17.1333ZM30.3333 28.8667C33.713 28.8667 36.9252 26.7579 39.2455 23.084C41.5705 19.4027 43.0667 14.0715 43.0667 7.33333H41.0667C41.0667 13.7951 39.6295 18.7306 37.5545 22.016C35.4748 25.3088 32.8204 26.8667 30.3333 26.8667V28.8667Z" fill="#989EA1"/>
</svg>
