<svg width="24" height="24" viewBox="0 0 24 24" fill="none" xmlns="http://www.w3.org/2000/svg">
<path d="M22.5375 0H1.4625C0.675 0 0 0.675 0 1.4625V22.5375C0 23.325 0.675 24 1.4625 24H22.5375C23.3625 24 24 23.325 24 22.5375V1.4625C24 0.675 23.325 0 22.5375 0ZM23.25 22.5375C23.25 22.95 22.9125 23.25 22.5375 23.25H1.4625C1.0875 23.25 0.75 22.9125 0.75 22.5375V1.4625C0.75 1.0875 1.0875 0.75 1.4625 0.75H22.5375C22.9125 0.75 23.25 1.0875 23.25 1.4625V22.5375Z" fill="#838383"/>
<path d="M3.26172 19.1745H20.6992C20.9242 19.1745 21.0742 19.0245 21.0742 18.7995V5.37451C21.0742 5.14951 20.9242 4.99951 20.6992 4.99951H3.26172C3.03672 4.99951 2.88672 5.14951 2.88672 5.37451V18.837C2.88672 19.0245 3.07422 19.1745 3.26172 19.1745ZM3.63672 5.74951H20.3242V18.462H3.63672V5.74951Z" fill="#838383"/>
<path d="M15.2242 11.2252C9.93672 8.15024 10.0492 8.00024 9.44922 8.00024C8.73672 8.00024 8.13672 8.60024 8.13672 9.31274V15.3877C8.13672 16.1002 8.73672 16.7002 9.44922 16.7002C10.0867 16.7002 9.93672 16.5502 15.2242 13.4752C16.0867 12.9502 16.0867 11.7127 15.2242 11.2252ZM14.8492 12.8377C9.56172 15.9502 9.71172 15.9502 9.44922 15.9502C9.18672 15.9502 8.88672 15.7252 8.88672 15.3877V9.31274C8.88672 8.97524 9.18672 8.75024 9.44922 8.75024C9.74922 8.75024 9.56172 8.75024 14.8492 11.8627C15.2242 12.0877 15.2242 12.6127 14.8492 12.8377Z" fill="#838383"/>
</svg>
