<svg width="44" height="38" viewBox="0 0 44 38" fill="none" xmlns="http://www.w3.org/2000/svg">
<path d="M20.0667 6.86667H43.5333M20.0667 30.3333H43.5333M3.93333 1H9.8C11.42 1 12.7333 2.3133 12.7333 3.93333V9.8C12.7333 11.42 11.42 12.7333 9.8 12.7333H3.93333C2.3133 12.7333 1 11.42 1 9.8V3.93333C1 2.3133 2.3133 1 3.93333 1ZM3.93333 24.4667H9.8C11.42 24.4667 12.7333 25.78 12.7333 27.4V33.2667C12.7333 34.8867 11.42 36.2 9.8 36.2H3.93333C2.3133 36.2 1 34.8867 1 33.2667V27.4C1 25.78 2.3133 24.4667 3.93333 24.4667Z" stroke="#989EA1" strokeWidth="2"/>
</svg>
