<svg width="44" height="44" viewBox="0 0 44 44" fill="none" xmlns="http://www.w3.org/2000/svg">
<path d="M1 42.5333H0V43.5333H1V42.5333ZM18.6 16.1333L19.4 15.5333C19.2053 15.2737 18.8967 15.1247 18.5723 15.1337C18.2478 15.1427 17.948 15.3086 17.768 15.5786L18.6 16.1333ZM27.4 27.8667L26.6 28.4667C26.7913 28.7217 27.0928 28.8703 27.4116 28.8666C27.7305 28.8629 28.0284 28.7074 28.2137 28.4479L27.4 27.8667ZM0 0V42.5333H2V0H0ZM1 43.5333H43.5333V41.5333H1V43.5333ZM7.69872 34.288L19.4321 16.688L17.768 15.5786L6.03462 33.1786L7.69872 34.288ZM17.8 16.7333L26.6 28.4667L28.2 27.2667L19.4 15.5333L17.8 16.7333ZM28.2137 28.4479L42.8804 7.91457L41.2529 6.7521L26.5863 27.2854L28.2137 28.4479Z" fill="#989EA1"/>
</svg>
