<svg width="512" height="512" viewBox="-7 0 30 20" fill="none" xmlns="http://www.w3.org/2000/svg">
<path d="M13.3884 4.30901C12.8582 3.05611 11.9807 1.98369 10.8611 1.22018C9.71275 0.435444 8.35694 0.016145 6.96928 0.0166031C6.03882 0.0159759 5.11779 0.204477 4.26135 0.57082C3.01651 1.1044 1.95085 1.98829 1.19212 3.11652C0.414035 4.27353 -0.0012637 5.63921 2.88853e-06 7.03668V15.3333H1.65062V7.03668C1.65001 6.32256 1.79255 5.61567 2.0697 4.95837C2.47553 4.00069 3.14664 3.18102 4.00275 2.59741C4.87767 1.99832 5.91136 1.67839 6.96928 1.67925C7.67824 1.67864 8.38002 1.82222 9.03256 2.10138C9.98345 2.50995 10.7972 3.186 11.3764 4.04853C11.9712 4.92982 12.2888 5.97105 12.2879 7.03668V15.3333H13.9386V7.03668C13.9392 6.09944 13.752 5.1717 13.3884 4.30901Z" fill="black"/>
</svg>
